<svg xmlns="http://www.w3.org/2000/svg" width="18" height="18" viewBox="0 0 48 48" aria-hidden="true">
  <path fill="#EA4335" d="M24 9.5c3.1 0 5.9 1.1 8.1 3.1l6-6C34.4 2.9 29.5 1 24 1 14.6 1 6.6 6.4 2.7 14.2l7 5.4C11.7 13.5 17.4 9.5 24 9.5z"/>
  <path fill="#34A853" d="M46.1 24.6c0-1.6-.1-2.8-.4-4.1H24v7.8h12.6c-.3 2-1.6 5-4.8 7l7.3 5.7c4.3-4 7-9.9 7-16.4z"/>
  <path fill="#4A90E2" d="M9.7 28.6c-0.5-1.5-0.8-3.2-0.8-4.9s.3-3.4.8-4.9l-7-5.4C1 16.8 0 20.3 0 23.7c0 3.4 1 6.9 2.7 10.3l7-5.4z"/>
  <path fill="#FBBC05" d="M24 46.5c5.5 0 10.1-1.8 13.5-4.9l-7.3-5.7c-2 1.4-4.6 2.3-6.2 2.3-6.6 0-12.3-4-14.3-9.6l-7 5.4C6.6 41.6 14.6 46.5 24 46.5z"/>
</svg>

